<svg width="80" height="80" viewBox="0 0 80 80" fill="#5C873C" xmlns="http://www.w3.org/2000/svg">
<path d="M18.666 29.7073C16.7699 29.7073 15.1552 29.0364 13.8218 27.6946C12.4886 26.3527 11.8219 24.7229 11.8219 22.8049C11.8219 20.916 12.4852 19.2905 13.8117 17.9285C15.1383 16.5665 16.7496 15.8855 18.6456 15.8855C20.5418 15.8855 22.1565 16.5636 23.4898 17.92C24.8232 19.2763 25.4899 20.9058 25.4899 22.8085C25.4899 24.7111 24.8266 26.3365 23.5 27.6849C22.1734 29.0332 20.5621 29.7073 18.666 29.7073ZM10.7513 80C9.51634 80 8.42788 79.5919 7.48592 78.7758C6.54395 77.9597 6.07296 76.9485 6.07296 75.742C4.42384 75.742 2.99941 75.1354 1.79969 73.9221C0.599896 72.7089 0 71.2684 0 69.6007V45.9366H11.8219V42.9371C11.8219 40.6024 12.6316 38.6163 14.251 36.9786C15.8704 35.3409 17.8406 34.5221 20.1614 34.5221C21.4141 34.5221 22.6235 34.7841 23.7894 35.3082C24.9555 35.8322 25.9811 36.5774 26.8664 37.5436L31.6518 43.128C32.143 43.6685 32.6518 44.1761 33.1781 44.651C33.7044 45.126 34.2618 45.5545 34.8502 45.9366H64.2105V10.4647C64.2105 8.91817 63.6875 7.5926 62.6416 6.48795C61.5957 5.38329 60.3137 4.83097 58.7954 4.83097C58.0574 4.83097 57.3435 4.94288 56.6538 5.16671C55.9641 5.39053 55.3602 5.76449 54.842 6.28857L49.4493 11.7829C49.7731 12.9893 49.819 14.1998 49.587 15.4144C49.3548 16.6291 48.923 17.7905 48.2914 18.8986L38.8097 9.71952C39.9137 8.97906 41.0966 8.506 42.3583 8.30034C43.6201 8.09461 44.869 8.2265 46.1052 8.69601L51.4979 3.308C52.4696 2.32541 53.5805 1.52843 54.8306 0.917055C56.0807 0.305684 57.407 0 58.8096 0C61.6666 0 64.0772 1.02095 66.0414 3.06285C68.0057 5.10475 68.9878 7.57202 68.9878 10.4647V45.9366H80V69.6007C80 71.2684 79.4001 72.7089 78.2003 73.9221C77.0006 75.1354 75.5762 75.742 73.927 75.742C73.927 76.9485 73.4552 77.9597 72.5116 78.7758C71.5679 79.5919 70.4581 80 69.1822 80H10.7513ZM6.07296 70.911H73.927C74.3049 70.911 74.6154 70.7881 74.8583 70.5424C75.1013 70.2968 75.2227 69.9828 75.2227 69.6007V50.7677H4.77728V69.6007C4.77728 69.9828 4.89875 70.2968 5.1417 70.5424C5.38465 70.7881 5.69507 70.911 6.07296 70.911Z" />
</svg>
