<svg width="80" height="80" viewBox="0 0 80 80" fill="#134266" xmlns="http://www.w3.org/2000/svg">
<path d="M40 80C38.8 80 37.65 79.7593 36.55 79.2778C35.45 78.7963 34.4667 78.0741 33.6 77.1111L6.8 47.2222C4.46667 44.6296 2.75 41.6667 1.65 38.3333C0.55 35 0 31.5185 0 27.8889C0 20.2593 2.23333 13.7037 6.7 8.22222C11.1667 2.74074 16.7333 0 23.4 0C26.6 0 29.6167 0.703704 32.45 2.11111C35.2833 3.51852 37.8 5.48148 40 8C42.1333 5.48148 44.6167 3.51852 47.45 2.11111C50.2833 0.703704 53.3 0 56.5 0C63.1667 0 68.75 2.74074 73.25 8.22222C77.75 13.7037 80 20.2222 80 27.7778C80 31.4074 79.4333 34.8889 78.3 38.2222C77.1667 41.5556 75.4667 44.5185 73.2 47.1111L46.3 77.1111C45.4333 78.0741 44.4667 78.7963 43.4 79.2778C42.3333 79.7593 41.2 80 40 80ZM44 22.2222C44.6667 22.2222 45.3 22.4074 45.9 22.7778C46.5 23.1481 46.9667 23.6296 47.3 24.2222L54.1 35.5556H70.7C71.1667 34.2963 71.5167 33.0185 71.75 31.7222C71.9833 30.4259 72.1 29.1111 72.1 27.7778C71.9667 22.6667 70.4333 18.2778 67.5 14.6111C64.5667 10.9444 60.9 9.11111 56.5 9.11111C54.4333 9.11111 52.45 9.55556 50.55 10.4444C48.65 11.3333 47 12.6296 45.6 14.3333L42.9 17.5556C42.5667 18 42.1333 18.3519 41.6 18.6111C41.0667 18.8704 40.5333 19 40 19C39.4667 19 38.9333 18.8704 38.4 18.6111C37.8667 18.3519 37.4 18 37 17.5556L34.3 14.3333C32.9 12.6296 31.2667 11.2963 29.4 10.3333C27.5333 9.37037 25.5333 8.88889 23.4 8.88889C19 8.88889 15.3333 10.7593 12.4 14.5C9.46667 18.2407 8 22.6667 8 27.7778C8 29.1111 8.1 30.4259 8.3 31.7222C8.5 33.0185 8.83333 34.2963 9.3 35.5556H28C28.6667 35.5556 29.3 35.7407 29.9 36.1111C30.5 36.4815 30.9667 36.963 31.3 37.5556L34.8 43.3333L40.2 25.3333C40.4667 24.4444 40.95 23.7037 41.65 23.1111C42.35 22.5185 43.1333 22.2222 44 22.2222ZM45.2 36.6667L39.8 54.6667C39.5333 55.5556 39.0333 56.2963 38.3 56.8889C37.5667 57.4815 36.7667 57.7778 35.9 57.7778C35.2333 57.7778 34.6 57.5926 34 57.2222C33.4 56.8519 32.9333 56.3704 32.6 55.7778L25.8 44.4444H15.6L39.3 70.7778C39.4333 70.9259 39.55 71.0185 39.65 71.0556C39.75 71.0926 39.8667 71.1111 40 71.1111C40.1333 71.1111 40.25 71.0926 40.35 71.0556C40.45 71.0185 40.5667 70.9259 40.7 70.7778L64.3 44.4444H52C51.3333 44.4444 50.7 44.2593 50.1 43.8889C49.5 43.5185 49 43.037 48.6 42.4444L45.2 36.6667Z" />
</svg>
