<svg width="80" height="80" viewBox="0 0 80 80" fill="#134266" xmlns="http://www.w3.org/2000/svg">
<path d="M4.5424 80L0.880734 76.3153L48.3693 28.5276C46.691 24.7542 46.2875 21.0014 47.1589 17.2694C48.0304 13.5373 50.1092 10.0031 53.3954 6.66662C56.4469 3.64321 60.3038 1.57049 64.966 0.448457C69.6283 -0.673499 73.5087 0.309739 76.6071 3.39817C79.7231 6.53381 80.6929 10.4238 79.5162 15.0682C78.3396 19.7126 76.164 23.6705 72.9893 26.942C69.9202 30.0481 66.5621 32.0706 62.9151 33.0095C59.268 33.9484 55.6634 33.6591 52.1014 32.1415L43.6423 40.6538L79.1245 76.3153L75.4629 80L39.9806 44.3828L4.5424 80ZM18.8903 40.1135L5.75719 26.942C2.15995 23.2926 0.248353 19.0025 0.022391 14.0717C-0.203495 9.1409 1.27971 4.67661 4.47202 0.678875L31.2751 27.6507L18.8903 40.1135Z" />
</svg>
